<svg version="1.1" id="Layer_1" xmlns="http://www.w3.org/2000/svg" x="0" y="0" viewBox="0 0 227 199.5" xml:space="preserve"><style>.st0{fill:#006fb8}.st1{fill:#f27d00}</style><path class="st0" d="M157.9 165.2c.1-10.7 4.8-20.7 13.1-27.8 7.2-6.2 15.3-10.5 21.8-14.6 6.3-4.2 10.9-8.3 10.9-13.9 0-6.5-4.3-10.4-10.8-10.4-10.8 0-13.8 7.8-13.9 16.9h-19c-1.2-20.7 12-34.7 32.8-34.7 16.5 0 31.3 8.6 31.3 26.5 0 16-11.5 22-23.7 29.6-6.3 4-9.7 6-15.1 11.3h39.6v17.2h-67v-.1z"/><path class="st0" d="M166.8 83.8c0 55.7-37 82.7-82.6 82.7S1.5 139.6 1.5 83.8c0-54.8 37-82.6 82.6-82.6s82.7 27.8 82.7 82.6m-82.9 49.9c14.4.1 30.9-.8 48-3.6 2-.3 3.1-1.2 3.3-2.5 4.6-32.6 1.4-61.3.1-70.2-.5-2.8-.7-3.3-3.3-5.5-15.2-13.4-36.8-25.2-44.4-29.2-1-.5-1.9-.8-2.8-.8s-1.8.3-2.8.8c-7.6 4-29.2 15.8-44.4 29.2-2.4 2.1-2.8 2.6-3.3 5.5-1.2 8.9-4.4 37.5.1 70.2.2 1.3 1.2 2.2 3.3 2.5 17.2 2.8 33.7 3.7 48 3.6h-1.8z"/><path class="st1" d="M14.3 182.6c-.8-.7-1.9-1-3.3-1-1.2 0-2.2.2-3 .7-.8.4-1.4 1-1.9 1.7s-.8 1.5-1 2.5c-.2.9-.3 1.9-.3 2.9 0 .9.1 1.8.3 2.7.2.9.6 1.7 1 2.3.5.7 1.1 1.2 1.8 1.6.7.4 1.6.6 2.7.6 1.6 0 2.9-.4 3.8-1.3.9-.8 1.5-2 1.7-3.6h3.4c-.4 2.5-1.3 4.4-2.8 5.7-1.5 1.3-3.5 2-6 2-1.5 0-2.9-.2-4-.7-1.2-.5-2.1-1.2-2.9-2.1-.8-.9-1.4-2-1.8-3.2-.4-1.2-.6-2.6-.6-4.1 0-1.5.2-2.9.6-4.2s1-2.4 1.8-3.4 1.8-1.7 2.9-2.3c1.2-.6 2.6-.8 4.1-.8 1.1 0 2.2.1 3.2.4 1 .3 1.9.7 2.6 1.3.8.6 1.4 1.3 1.9 2.1.5.9.8 1.9.9 3.1H16c-.4-1.2-.9-2.2-1.7-2.9zM40.7 199c-.6.3-1.3.5-2.3.5-.8 0-1.5-.2-2-.7-.5-.5-.8-1.3-.8-2.3-.9 1.1-1.9 1.9-3.1 2.3-1.2.5-2.5.7-3.9.7-.9 0-1.8-.1-2.6-.3-.8-.2-1.5-.5-2.1-1-.6-.4-1.1-1-1.4-1.7-.3-.7-.5-1.6-.5-2.6 0-1.1.2-2.1.6-2.8.4-.7.9-1.3 1.5-1.8.6-.4 1.3-.8 2.2-1 .8-.2 1.6-.4 2.5-.6.9-.2 1.8-.3 2.6-.4.8-.1 1.5-.2 2.1-.4.6-.2 1.1-.4 1.5-.7.4-.3.5-.8.5-1.4 0-.7-.1-1.3-.4-1.7-.3-.4-.6-.8-1-1-.4-.2-.9-.4-1.4-.5-.5-.1-1-.1-1.6-.1-1.4 0-2.5.3-3.5.8-.9.5-1.4 1.5-1.5 3h-3.3c.1-1.2.3-2.3.8-3.1.5-.8 1.1-1.5 1.8-2.1.8-.5 1.7-.9 2.6-1.1 1-.2 2-.3 3.2-.3.9 0 1.8.1 2.7.2.9.1 1.7.4 2.4.8s1.3 1 1.7 1.7c.4.7.7 1.7.7 2.8v10.2c0 .8 0 1.3.1 1.7.1.4.4.5.9.5.3 0 .6-.1 1-.2v2.6zm-5.3-10.2c-.4.3-1 .5-1.6.7-.7.1-1.4.3-2.1.3-.7.1-1.5.2-2.2.3-.7.1-1.4.3-2 .6-.6.3-1.1.6-1.4 1.1-.4.5-.6 1.1-.6 1.9 0 .5.1 1 .3 1.4.2.4.5.7.8.9.3.2.8.4 1.2.5.5.1.9.2 1.5.2 1.1 0 2-.1 2.8-.4.8-.3 1.4-.7 1.9-1.1.5-.4.8-.9 1.1-1.5.2-.5.3-1 .3-1.5v-3.4zM46.7 179.2v4.2h.1c.8-1.6 1.8-2.8 2.9-3.6 1.2-.8 2.6-1.1 4.4-1.1v3.5c-1.3 0-2.4.2-3.4.5-.9.4-1.7.9-2.2 1.6-.6.7-1 1.5-1.2 2.5-.3 1-.4 2.1-.4 3.4v8.9h-3.3v-19.9h3.1zM70 197.8c-1.5 1.1-3.4 1.7-5.6 1.7-1.6 0-3-.3-4.1-.8-1.2-.5-2.2-1.2-2.9-2.2-.8-.9-1.4-2-1.8-3.3-.4-1.3-.6-2.7-.7-4.2 0-1.5.2-2.9.7-4.2.5-1.3 1.1-2.4 1.9-3.3.8-.9 1.8-1.6 3-2.2 1.1-.5 2.4-.8 3.8-.8 1.8 0 3.2.4 4.4 1.1 1.2.7 2.1 1.7 2.8 2.8.7 1.1 1.2 2.4 1.5 3.7.3 1.3.4 2.6.3 3.8h-15c0 .9.1 1.7.3 2.5.2.8.6 1.5 1.1 2.1.5.6 1.2 1.1 2 1.4.8.4 1.7.5 2.8.5 1.4 0 2.5-.3 3.4-1 .9-.6 1.5-1.6 1.8-2.9h3.2c-.5 2.5-1.4 4.2-2.9 5.3zm-.8-12.8c-.3-.7-.7-1.3-1.2-1.8s-1.1-.9-1.8-1.2c-.7-.3-1.4-.4-2.3-.4-.8 0-1.6.1-2.3.4-.7.3-1.3.7-1.8 1.2s-.9 1.1-1.2 1.8c-.3.7-.4 1.4-.5 2.2h11.4c.2-.8 0-1.5-.3-2.2zM89.8 194.6c.3.5.7.9 1.2 1.2.5.3 1.1.5 1.7.6.6.1 1.3.2 1.9.2.5 0 1.1 0 1.6-.1.6-.1 1.1-.2 1.6-.4s.9-.5 1.2-.9c.3-.4.5-.9.5-1.5 0-.8-.3-1.5-1-1.9-.6-.4-1.4-.8-2.4-1.1-1-.3-2-.5-3.1-.7-1.1-.2-2.2-.5-3.1-.9-1-.4-1.8-1-2.4-1.7-.6-.7-1-1.7-1-3 0-1 .2-1.9.7-2.6.4-.7 1-1.3 1.7-1.8.7-.4 1.5-.8 2.4-1 .9-.2 1.8-.3 2.6-.3 1.1 0 2.2.1 3.1.3.9.2 1.8.5 2.5 1s1.3 1.1 1.8 1.9c.4.8.7 1.8.8 3h-3.3c-.1-.6-.2-1.2-.5-1.6-.3-.4-.6-.8-1.1-1-.4-.3-.9-.4-1.4-.6-.5-.1-1.1-.2-1.6-.2s-1 0-1.5.1-1 .2-1.4.4c-.4.2-.7.5-1 .8-.3.3-.4.7-.4 1.3 0 .6.2 1 .6 1.4.4.4.9.7 1.5.9.6.2 1.3.4 2.1.6.8.2 1.5.3 2.3.5.8.2 1.6.4 2.4.7.8.3 1.5.6 2.1 1 .6.4 1.1 1 1.5 1.6.4.6.6 1.4.6 2.4 0 1.2-.3 2.2-.8 3-.5.8-1.2 1.4-2 1.9s-1.7.8-2.7 1c-1 .2-2 .3-3 .3-1.1 0-2.2-.1-3.2-.3-1-.2-1.9-.6-2.7-1.1-.8-.5-1.4-1.2-1.8-2.1-.5-.9-.7-1.9-.8-3.1h3.3c0 .7.2 1.3.5 1.8zM120.6 197.8c-1.5 1.1-3.4 1.7-5.6 1.7-1.6 0-3-.3-4.1-.8-1.2-.5-2.2-1.2-2.9-2.2-.8-.9-1.4-2-1.8-3.3-.4-1.3-.6-2.7-.7-4.2 0-1.5.2-2.9.7-4.2.5-1.3 1.1-2.4 1.9-3.3.8-.9 1.8-1.6 3-2.2 1.1-.5 2.4-.8 3.8-.8 1.8 0 3.2.4 4.4 1.1 1.2.7 2.1 1.7 2.8 2.8.7 1.1 1.2 2.4 1.5 3.7.3 1.3.4 2.6.3 3.8H109c0 .9.1 1.7.3 2.5.2.8.6 1.5 1.1 2.1.5.6 1.2 1.1 2 1.4.8.4 1.7.5 2.8.5 1.4 0 2.5-.3 3.4-1 .9-.6 1.5-1.6 1.8-2.9h3.2c-.5 2.5-1.5 4.2-3 5.3zm-.7-12.8c-.3-.7-.7-1.3-1.2-1.8s-1.1-.9-1.8-1.2c-.7-.3-1.4-.4-2.3-.4-.8 0-1.6.1-2.3.4-.7.3-1.3.7-1.8 1.2s-.9 1.1-1.2 1.8c-.3.7-.4 1.4-.5 2.2h11.4c.1-.8 0-1.5-.3-2.2zM130.2 179.2v4.2h.1c.8-1.6 1.8-2.8 2.9-3.6 1.2-.8 2.6-1.1 4.4-1.1v3.5c-1.3 0-2.4.2-3.4.5-.9.4-1.7.9-2.2 1.6-.6.7-1 1.5-1.2 2.5-.3 1-.4 2.1-.4 3.4v8.9h-3.3v-19.9h3.1zM145.5 199.1l-7.4-19.9h3.7l5.6 16.6h.1l5.4-16.6h3.4l-7.3 19.9h-3.5zM159.5 175.6v-4h3.3v4h-3.3zm3.3 3.6v19.9h-3.3v-19.9h3.3zM179.8 182.6c-.8-.7-1.9-1-3.3-1-1.2 0-2.2.2-3 .7-.8.4-1.4 1-1.9 1.7s-.8 1.5-1 2.5c-.2.9-.3 1.9-.3 2.9 0 .9.1 1.8.3 2.7.2.9.6 1.7 1 2.3.5.7 1.1 1.2 1.8 1.6.7.4 1.6.6 2.7.6 1.6 0 2.9-.4 3.8-1.3s1.5-2 1.7-3.6h3.4c-.4 2.5-1.3 4.4-2.8 5.7-1.5 1.3-3.5 2-6 2-1.5 0-2.9-.2-4-.7-1.2-.5-2.1-1.2-2.9-2.1-.8-.9-1.4-2-1.8-3.2-.4-1.2-.6-2.6-.6-4.1 0-1.5.2-2.9.6-4.2.4-1.3 1-2.4 1.8-3.4s1.8-1.7 2.9-2.3c1.2-.6 2.6-.8 4.1-.8 1.1 0 2.2.1 3.2.4 1 .3 1.9.7 2.6 1.3.8.6 1.4 1.3 1.9 2.1.5.9.8 1.9.9 3.1h-3.4c-.4-1.2-.9-2.2-1.7-2.9zM202.7 197.8c-1.5 1.1-3.4 1.7-5.6 1.7-1.6 0-3-.3-4.1-.8-1.2-.5-2.2-1.2-2.9-2.2-.8-.9-1.4-2-1.8-3.3s-.6-2.7-.7-4.2c0-1.5.2-2.9.7-4.2.5-1.3 1.1-2.4 1.9-3.3.8-.9 1.8-1.6 3-2.2 1.1-.5 2.4-.8 3.8-.8 1.8 0 3.2.4 4.4 1.1 1.2.7 2.1 1.7 2.8 2.8.7 1.1 1.2 2.4 1.5 3.7.3 1.3.4 2.6.3 3.8h-15c0 .9.1 1.7.3 2.5.2.8.6 1.5 1.1 2.1.5.6 1.2 1.1 2 1.4.8.4 1.7.5 2.8.5 1.4 0 2.5-.3 3.4-1 .9-.6 1.5-1.6 1.8-2.9h3.2c-.5 2.5-1.4 4.2-2.9 5.3zm-.8-12.8c-.3-.7-.7-1.3-1.2-1.8s-1.1-.9-1.8-1.2c-.7-.3-1.4-.4-2.3-.4-.8 0-1.6.1-2.3.4-.7.3-1.3.7-1.8 1.2s-.9 1.1-1.2 1.8c-.3.7-.4 1.4-.5 2.2h11.4c.1-.8 0-1.5-.3-2.2zM211.8 194.6c.3.5.7.9 1.2 1.2.5.3 1.1.5 1.7.6.6.1 1.3.2 1.9.2.5 0 1.1 0 1.6-.1.6-.1 1.1-.2 1.6-.4s.9-.5 1.2-.9c.3-.4.5-.9.5-1.5 0-.8-.3-1.5-1-1.9-.6-.4-1.4-.8-2.4-1.1-1-.3-2-.5-3.1-.7-1.1-.2-2.2-.5-3.1-.9-1-.4-1.8-1-2.4-1.7-.6-.7-1-1.7-1-3 0-1 .2-1.9.7-2.6.4-.7 1-1.3 1.7-1.8s1.5-.8 2.4-1c.9-.2 1.8-.3 2.6-.3 1.1 0 2.2.1 3.1.3.9.2 1.8.5 2.5 1s1.3 1.1 1.8 1.9c.4.8.7 1.8.8 3h-3.3c-.1-.6-.2-1.2-.5-1.6-.3-.4-.6-.8-1.1-1-.4-.3-.9-.4-1.4-.6-.5-.1-1.1-.2-1.6-.2s-1 0-1.5.1-1 .2-1.4.4c-.4.2-.7.5-1 .8-.3.3-.4.7-.4 1.3 0 .6.2 1 .6 1.4.4.4.9.7 1.5.9.6.2 1.3.4 2.1.6.8.2 1.5.3 2.3.5.8.2 1.6.4 2.4.7.8.3 1.5.6 2.1 1 .6.4 1.1 1 1.5 1.6.4.6.6 1.4.6 2.4 0 1.2-.3 2.2-.8 3-.5.8-1.2 1.4-2 1.9s-1.7.8-2.7 1c-1 .2-2 .3-3 .3-1.1 0-2.2-.1-3.2-.3-1-.2-1.9-.6-2.7-1.1-.8-.5-1.4-1.2-1.8-2.1-.5-.9-.7-1.9-.8-3.1h3.3c0 .7.2 1.3.5 1.8z"/></svg>