<svg xmlns="http://www.w3.org/2000/svg" viewBox="0 0 32 32"><g fill="#006FB9" fill-rule="evenodd" transform="translate(0 4)"><path d="M22.4 23.5a5.3 5.3 0 0 1 1.87-3.98c1.03-.89 2.2-1.5 3.12-2.09.93-.58 1.57-1.18 1.57-1.99 0-.93-.62-1.5-1.55-1.5-1.54 0-1.97 1.12-1.99 2.43H22.7c-.17-2.97 1.72-4.98 4.7-4.98 2.37 0 4.48 1.23 4.48 3.8 0 2.28-1.65 3.14-3.4 4.23-.9.57-1.39.86-2.16 1.61H32v2.48h-9.6z"/><path d="M11.8 18.99c2.3.01 4.6-.16 6.88-.52.29-.05.44-.17.47-.36.44-3.33.45-6.71.01-10.05-.07-.4-.1-.47-.48-.79a35.6 35.6 0 0 0-6.36-4.18.77.77 0 0 0-.8 0 35.7 35.7 0 0 0-6.37 4.18c-.35.3-.4.38-.48.79-.43 3.34-.42 6.72.02 10.05.03.18.18.31.47.36 2.27.36 4.57.53 6.87.52h-.23zm11.88-7.15c0 7.98-5.3 11.84-11.84 11.84S0 19.82 0 11.84C0 3.99 5.3 0 11.84 0s11.84 3.99 11.84 11.84z"/></g></svg>